<?xml version="1.0" encoding="UTF-8"?>
<svg width="16px" height="16px" viewBox="0 0 16 16" version="1.1" xmlns="http://www.w3.org/2000/svg" xmlns:xlink="http://www.w3.org/1999/xlink">
    <!-- Generator: Sketch 52.3 (67297) - http://www.bohemiancoding.com/sketch -->
    <title>Combined Shape 4</title>
    <desc>Created with Sketch.</desc>
    <g id="Page-2" stroke="none" stroke-width="1" fill="none" fill-rule="evenodd">
        <g id="Artboard" transform="translate(-21.000000, -218.000000)" fill-rule="nonzero">
            <g id="Group" transform="translate(20.000000, 16.000000)">
                <g id="Combined-Shape-4" transform="translate(0.000000, 201.000000)">
                    <rect id="Rectangle" x="0" y="0" width="18" height="18"></rect>
                    <path d="M5.13228125,1.9881875 C8.21984375,2.35775 10.82475,4.7575625 11.2933125,7.933125 C10.721625,8.20684375 10.0688437,8.3880625 9.334875,8.462 C8.30815625,5.88840625 5.575,4.43053125 2.807375,3.92225 C3.450125,3.13890625 4.2393125,2.4809375 5.13228125,1.9881875 Z M9.03125,1 C11.3174375,1 13.376,1.97315625 14.8304687,3.520375 C14.3343125,4.9375625 13.508,6.44040625 12.151125,7.422875 C11.6064687,4.65765625 9.6234375,2.26121875 6.67559375,1.35590625 C7.4204375,1.12496875 8.2114375,1 9.03125,1 Z M15.5285937,4.3711875 C16.010625,5.05034375 16.3936562,5.80421875 16.6451875,6.61709375 C15.615625,9.9884375 12.4195937,12.5125625 8.564375,12.2870313 C8.568875,11.390625 8.822875,10.4243125 9.339125,9.409 C12.175125,9.15853125 14.3289062,7.3806875 15.5285937,4.3711875 Z M16.967375,8.32421875 C16.9845625,8.5374375 17,8.7511875 17,8.96875 C17,12.8898438 14.1508125,16.2132187 10.4156563,16.8714062 C9.4580625,15.8792813 8.825375,14.605375 8.62996875,13.2281875 C12.341375,13.3944375 15.4485,11.2935313 16.967375,8.32421875 Z M7.625,12.3125 C7.625,14.0355938 8.228375,15.6769375 9.27340625,16.98775 C9.19228125,16.9902188 9.11303125,17 9.03125,17 C8.09025,17 7.159625,16.8275312 6.320875,16.52675 C3.94053125,13.6835625 4.39225,9.38540625 7.33115625,7.08203125 C7.8458125,7.6073125 8.2603125,8.21846875 8.52175,8.92984375 C7.91065625,10.1140625 7.625,11.2363125 7.625,12.3125 Z M6.62228125,6.458875 C3.861875,8.7246875 3.04734375,12.5910312 4.62909375,15.7057812 C2.4476875,14.2825312 1,11.762125 1,8.96875 C1,7.42975 1.445875,5.99625 2.2045,4.77665625 C3.78465625,5.003 5.41321875,5.5491875 6.62228125,6.458875 Z" id="Combined-Shape" fill="#ACADBF"></path>
                </g>
            </g>
        </g>
    </g>
</svg>