<?xml version="1.0" encoding="UTF-8"?>
<svg width="12px" height="17px" viewBox="0 0 12 17" version="1.1" xmlns="http://www.w3.org/2000/svg" xmlns:xlink="http://www.w3.org/1999/xlink">
    <!-- Generator: Sketch 52.3 (67297) - http://www.bohemiancoding.com/sketch -->
    <title>Fill 4</title>
    <desc>Created with Sketch.</desc>
    <g id="Page-2" stroke="none" stroke-width="1" fill="none" fill-rule="evenodd">
        <g id="Artboard" transform="translate(-51.000000, -138.000000)" fill-rule="nonzero">
            <g id="Group-Copy" transform="translate(48.000000, 16.000000)">
                <g id="Fill-4" transform="translate(0.000000, 121.000000)">
                    <rect id="Rectangle" x="0" y="0" width="18" height="18"></rect>
                    <path d="M5.22377103,6.98053813 L12.7874051,6.98053813 L12.7874051,6.03420204 L5.22377103,6.03420204 L5.22377103,6.98053813 Z M4.15660924,14.9656063 L13.8781594,14.9656063 L13.8781594,14.0080312 L4.15660924,14.0080312 L4.15660924,14.9656063 Z M3.06223648,18 L14.9587095,18 L14.9587095,16.0113642 L3.06223648,16.0113642 L3.06223648,18 Z M5.29729853,12.977303 L12.7248778,12.977303 C12.4218664,11.3096766 12.1234866,9.66665623 11.82337,8.01439201 L6.19801029,8.01439201 C5.89811076,9.66692225 5.5999481,11.3100756 5.29729853,12.977303 Z M3.0412493,2.22305459 C3.03755845,1.82596586 3.04052561,1.42874411 3.04052561,1.00984243 L6.27884711,1.00984243 L6.27884711,1.96409235 L7.36952902,1.96409235 L7.36952902,1.00498772 L10.635351,1.00498772 L10.635351,1.96661946 L11.7227039,1.96661946 L11.7227039,1 L14.9812889,1 C14.9812889,1.65119627 14.9399658,2.29394667 14.9935917,2.92998028 C15.0415003,3.49791494 14.8185297,3.87864397 14.4003783,4.2916934 C13.8474023,4.8376821 13.2764787,5.04696669 12.4583406,5.03020796 C9.9044906,4.97793669 7.34854184,5.008129 4.79338915,5.01551082 C4.54501676,5.01630886 4.3627178,4.95825183 4.19293877,4.78820395 C3.82718292,4.42157354 3.29693102,4.12696575 3.10428321,3.69995071 C2.91156302,3.27300218 3.04588096,2.72056269 3.0412493,2.22305459 Z" id="Fill-1" fill="#4A39E2"></path>
                </g>
            </g>
        </g>
    </g>
</svg>