<?xml version="1.0" encoding="UTF-8"?>
<svg width="16px" height="18px" viewBox="0 0 16 18" version="1.1" xmlns="http://www.w3.org/2000/svg" xmlns:xlink="http://www.w3.org/1999/xlink">
    <!-- Generator: Sketch 52.3 (67297) - http://www.bohemiancoding.com/sketch -->
    <title>Combined Shape 3</title>
    <desc>Created with Sketch.</desc>
    <g id="Page-2" stroke="none" stroke-width="1" fill="none" fill-rule="evenodd">
        <g id="Artboard" transform="translate(-21.000000, -177.000000)" fill-rule="nonzero">
            <g id="Group" transform="translate(20.000000, 16.000000)">
                <g id="Combined-Shape-3" transform="translate(0.000000, 161.000000)">
                    <rect id="Rectangle" x="0" y="0" width="18" height="18"></rect>
                    <path d="M8.43357852,13.0787633 C7.60963379,12.6073082 6.83511581,12.1104453 6.01266027,11.7115434 C5.41209327,11.420201 5.19453045,11.0462835 5.24374447,10.3806706 C5.31026139,9.4816593 5.26026733,8.57410813 5.26026733,7.62308144 C5.37528913,7.67128562 5.45960536,7.69676396 5.5339937,7.73932196 C6.43452508,8.25425262 7.3368293,8.76643078 8.22906379,9.29540628 C8.33798703,9.35991377 8.4580437,9.51631267 8.45988745,9.63198857 C8.47726128,10.7135123 8.47038266,11.795389 8.46846799,12.8772657 C8.46839708,12.9317512 8.45017229,12.9862367 8.43357852,13.0787633 Z M9.5320864,13.097925 C9.5320864,11.8656485 9.52953351,10.7159473 9.53797222,9.56638713 C9.53853953,9.49115192 9.60541102,9.38528625 9.67242434,9.34632768 C10.6674835,8.76660722 11.6677194,8.19577948 12.7051848,7.60095552 C12.7189421,7.73321704 12.7358904,7.82073267 12.7360322,7.90817772 C12.737876,8.93062844 12.7419181,9.95314975 12.7308556,10.9755299 C12.7295791,11.0972754 12.6784504,11.2778823 12.5900212,11.3303917 C11.5990041,11.9186519 10.5962863,12.4871506 9.5320864,13.097925 Z M9.56075675,17.9483093 C9.54891418,17.8521833 9.53125671,17.7745485 9.53104397,17.6969136 C9.52827834,16.6753804 9.53444782,15.6536354 9.52210886,14.6321728 C9.51934323,14.4018797 9.5965681,14.2764641 9.79923907,14.1634701 C10.6835312,13.6705595 11.5567609,13.1579579 12.4349545,12.6540373 C12.5137395,12.6088679 12.5989067,12.5747086 12.7371172,12.508719 L12.7371172,13.8364863 C12.7371172,14.5176261 12.7461942,15.1989071 12.7288912,15.8795528 C12.7257001,16.0054624 12.6499644,16.1846577 12.55026,16.2443659 C11.6114353,16.8072185 10.6602716,17.3496742 9.71180265,17.8965763 C9.67400572,17.918314 9.62784098,17.9257952 9.56075675,17.9483093 Z M8.46519179,18 C7.39432602,17.3817444 6.39444473,16.8080936 5.4011584,16.2234328 C5.32896839,16.1809453 5.26443705,16.0584234 5.26379882,15.9726017 C5.25472189,14.8349691 5.25777117,13.6971953 5.25777117,12.5540577 C5.31521116,12.5540577 5.35556098,12.5416362 5.38052255,12.5558222 C6.3524639,13.1105583 7.32447615,13.6652945 8.29109898,14.2289939 C8.36860751,14.2742339 8.45703673,14.3835578 8.45781678,14.463804 C8.46859564,15.6124466 8.46519179,16.7611598 8.46519179,18 Z M12.1998619,6.66651446 C11.1506247,7.26896075 10.1620896,7.84077657 9.16660496,8.40059428 C9.08349426,8.44731633 8.93060461,8.45536212 8.85040137,8.41033392 C7.84442152,7.84557581 6.84588759,7.26776094 5.80083436,6.66764369 C6.27070765,6.39606294 6.70540781,6.14410262 7.14081711,5.89334212 C7.68181671,5.58174413 8.22033433,5.26584095 8.76729067,4.96504127 C8.86756245,4.90992054 9.03534395,4.86002251 9.11696547,4.90547418 C10.1340078,5.47256133 11.1409096,6.05764565 12.1998619,6.66651446 Z M1.00424071,5.13504743 C2.06454036,5.7443397 3.0547774,6.31093282 4.04033415,6.88521883 C4.10926214,6.92537722 4.18804711,7.02270306 4.18861442,7.09398595 C4.19783318,8.25265052 4.19513847,9.41138566 4.19513847,10.6289115 C4.03515746,10.5451365 3.92332677,10.4912156 3.8158218,10.4296723 C2.95826404,9.93810271 2.09957166,9.4482975 1.24690694,8.94832918 C1.14812434,8.89038537 1.01587054,8.77435659 1.01459409,8.68366499 C0.998851283,7.52563561 1.00424071,6.36718278 1.00424071,5.13504743 Z M13.8015086,10.6470922 C13.8015086,9.41389821 13.7989557,8.26476155 13.8072526,7.11569548 C13.8078199,7.04116604 13.8732022,6.93621786 13.9391518,6.89768275 C14.9324381,6.31711537 15.9308302,5.74537013 16.9945337,5.13325477 L16.9945337,5.98596753 C16.9944628,6.84284433 16.9979376,7.69972114 16.9899953,8.55652737 C16.9890025,8.66091092 16.9588642,8.81872136 16.8878797,8.86064417 C15.8884948,9.45172755 14.8796075,10.0269311 13.8015086,10.6470922 Z M1.54374404,4.21951398 C2.59858334,3.61297422 3.58690572,3.04031147 4.58239036,2.48014088 C4.66401188,2.43419517 4.81647605,2.43306594 4.89781391,2.47872934 C5.8935113,3.03798243 6.88204641,3.60979825 7.90149985,4.1950943 C7.82101295,4.25706101 7.76612585,4.310135 7.70187816,4.34725857 C6.79382994,4.87136426 5.88627811,5.3965286 4.97298229,5.91152984 C4.87256868,5.96813269 4.70393622,6.02367688 4.62366206,5.97893099 C3.60711608,5.41247903 2.6009944,4.82760644 1.54374404,4.21951398 Z M16.4541865,4.21940812 C15.4021838,4.8240423 14.4044299,5.4002339 13.4017121,5.96774452 C13.3334932,6.0063502 13.2080471,6.01474888 13.1429485,5.9779782 C12.1296645,5.40510372 11.1219118,4.8224896 10.0644487,4.21425599 C10.964271,3.69678455 11.8362951,3.23443384 12.6638564,2.70348217 C13.1024568,2.42195004 13.4274537,2.43655951 13.8593882,2.71251604 C14.6817729,3.2379627 15.5465638,3.69763147 16.4541865,4.21940812 Z M5.85372169,1.74383097 C6.55895711,1.33758907 7.24688962,0.93720507 7.93907694,0.544161093 C8.29555944,0.341745915 8.65842416,0.00248170239 9.02029609,1.15032153e-05 C9.36699252,-0.00231754172 9.71702189,0.349579975 10.064002,0.548466297 C10.7277529,0.928947547 11.3905111,1.3112638 12.0533402,1.69336833 C12.073267,1.7048724 12.0895062,1.72279898 12.1370892,1.76246333 C12.0619917,1.81850156 11.9981695,1.8766571 11.9250576,1.9189328 C11.0282137,2.43696885 10.1322208,2.95683991 9.22878198,3.46344248 C9.12517726,3.52159802 8.94534045,3.56020371 8.85570571,3.51030568 C7.87894224,2.96608552 6.91302855,2.40266837 5.94491654,1.8430624 C5.91832395,1.82767658 5.90109196,1.79634034 5.85372169,1.74383097 Z M1.00112761,10.0342993 C1.56333036,10.3578954 2.0496556,10.6382277 2.53640632,10.9177837 C3.01606569,11.1932462 3.50104357,11.459816 3.97190965,11.7493939 C4.07232326,11.8111489 4.1838703,11.9540675 4.18528857,12.0610625 C4.20018042,13.1641122 4.19372729,14.2674444 4.19159988,15.3706353 C4.19152897,15.4027479 4.17401332,15.4348605 4.15366112,15.5045201 C3.89886868,15.3618132 3.65492601,15.2278578 3.41353623,15.0895972 C2.68844501,14.6745332 1.96143913,14.2627863 1.24336835,13.836077 C1.13955089,13.7743926 1.01297017,13.6387434 1.01148099,13.5356302 C0.994958128,12.399762 1.00112761,11.2634704 1.00112761,10.0342993 Z M16.994555,10.0357461 C16.994555,10.786475 16.9942714,11.4515232 16.9946259,12.1165008 C16.9949096,12.5626188 17.0102978,13.0093013 16.9876764,13.4541489 C16.9812942,13.5788587 16.8959142,13.7506434 16.7933023,13.811622 C15.8628454,14.3645232 14.9206169,14.8979451 13.9811539,15.4358133 C13.9426479,15.4578333 13.8969795,15.467573 13.8020972,15.5022263 L13.8020972,14.4307951 C13.8021681,13.667927 13.7957859,12.9048472 13.8089049,12.1422614 C13.8109614,12.0223509 13.8677631,11.8470373 13.9571851,11.7938928 C14.9368561,11.2118433 15.928015,10.6489202 16.994555,10.0357461 Z" id="Combined-Shape" fill="#ACADBF"></path>
                </g>
            </g>
        </g>
    </g>
</svg>