<?xml version="1.0" encoding="UTF-8"?>
<svg width="28px" height="28px" viewBox="0 0 28 28" version="1.1" xmlns="http://www.w3.org/2000/svg" xmlns:xlink="http://www.w3.org/1999/xlink">
    <!-- Generator: Sketch 52.3 (67297) - http://www.bohemiancoding.com/sketch -->
    <title>logo</title>
    <desc>Created with Sketch.</desc>
    <g id="Page-1" stroke="none" stroke-width="1" fill="none" fill-rule="evenodd">
        <g id="Uproar" transform="translate(-35.000000, -21.000000)">
            <g id="leftbar">
                <g id="logo" transform="translate(35.000000, 21.000000)">
                    <rect id="Rectangle-31" fill="#6F6EFF" x="0" y="0" width="28" height="28" rx="4"></rect>
                    <path d="M22.1624993,10.5169428 C21.8159481,10.3203406 21.4377614,10.1829559 21.0456744,10.0981564 C21.0559798,10.0609677 21.0689216,10.0218842 21.0792271,9.98540617 C21.2172724,9.47518785 21.6366809,7.92534642 20.6581409,6.64198392 C19.9487414,5.7103736 18.8707416,5.4254188 18.2933959,5.2738219 C17.8131132,5.14662263 17.1775295,5 16.5110295,5 C15.5092423,5 14.6514919,5.34251425 14.0005699,5.94700688 C13.3496479,5.34251425 12.4918976,5 11.4901104,5 C10.8236103,5 10.1873077,5.14662263 9.71038028,5.27287442 C9.13063788,5.42636628 8.05167951,5.71108421 7.34227995,6.64269453 C6.36445895,7.92605703 6.78386747,9.47589846 6.92191279,9.98706426 C6.93125961,10.0225948 6.94420136,10.0616784 6.95450682,10.0981564 C6.56241977,10.1836665 6.18351414,10.3203406 5.83528523,10.5178903 C3.90121281,11.6224158 3.43530986,14.0316222 4.7270881,16.2451738 C5.5572773,17.6701846 7.37223771,18.5060994 8.99331154,18.7138345 C9.27539373,20.7407325 11.4668632,22.9983419 13.9988923,23 L13.9998509,23 C16.5318801,23 18.7240685,20.7416799 19.0063903,18.7138345 C20.6265055,18.5060994 22.4424246,17.6701846 23.2726138,16.2461213 C24.5648713,14.0306747 24.0992081,11.6224158 22.1624993,10.5169428 Z M14.9671268,8.36710926 C15.3815024,6.8421392 16.6207947,7.02358174 17.736661,7.32014317 C18.8518083,7.61504652 19.4202866,7.91184482 19.0078283,9.43776237 C18.5934527,10.9636799 17.3532018,13.1424116 16.2382941,12.8465608 C15.1224278,12.5514206 14.5537098,9.89302681 14.9671268,8.36710926 Z M10.2632805,7.31943256 C11.3791469,7.02263426 12.6186788,6.8421392 13.0328147,8.36639865 C13.445273,9.8923162 12.8775137,12.5516574 11.7616474,12.8458502 C10.6465001,13.141701 9.40720784,10.9622587 8.99211323,9.43705176 C8.57869627,7.91184482 9.14741422,7.61433591 10.2632805,7.31943256 Z M10.6656731,16.465463 C9.77868395,16.9707071 7.29147161,16.3993762 6.58470834,15.1863642 C5.87794507,13.9747733 6.01934566,12.8591149 6.90705374,12.3522128 C7.79404284,11.8469687 9.08390378,12.1444776 9.79066705,13.3584372 C10.5000666,14.5690805 11.5517035,15.9618771 10.6656731,16.465463 Z M13.9996113,20.8804858 C12.400826,20.8795384 11.1047339,19.1951547 11.1047339,18.2829677 C11.1047339,17.3700701 12.400826,17.5742522 13.9996113,17.5742522 C15.5983965,17.5759103 16.8944887,17.3698333 16.8944887,18.2829677 C16.894249,19.1942072 15.5983965,20.8804858 13.9996113,20.8804858 Z M21.4145142,15.1870748 C20.7077509,16.4000869 18.2202989,16.9707071 17.3335495,16.4661736 C16.4484777,15.9618771 17.4998749,14.5697912 18.2083158,13.3593847 C18.9150791,12.1454251 20.2058987,11.8486268 21.0919291,12.3531602 C21.9796372,12.8600624 22.1212775,13.9757208 21.4145142,15.1870748 Z" id="Shape" fill="#FFFFFF" fill-rule="nonzero"></path>
                </g>
            </g>
        </g>
    </g>
</svg>