<?xml version="1.0" encoding="UTF-8"?>
<svg width="14px" height="18px" viewBox="0 0 14 18" version="1.1" xmlns="http://www.w3.org/2000/svg" xmlns:xlink="http://www.w3.org/1999/xlink">
    <!-- Generator: Sketch 52.3 (67297) - http://www.bohemiancoding.com/sketch -->
    <title>Fill 2</title>
    <desc>Created with Sketch.</desc>
    <g id="Page-2" stroke="none" stroke-width="1" fill="none" fill-rule="evenodd">
        <g id="Artboard" transform="translate(-22.000000, -96.000000)" fill-rule="nonzero">
            <g id="Group" transform="translate(20.000000, 16.000000)">
                <g id="Fill-2" transform="translate(0.000000, 80.000000)">
                    <rect id="Rectangle" x="0" y="0" width="18" height="18"></rect>
                    <path d="M16,4.14677791 L16,4.52384495 C15.9999052,5.66477576 15.9995262,10.1481762 15.998863,17.9740463 C15.8975982,17.9841746 12.1633776,18.0068929 10.3751473,17.9895904 C10.1897439,17.987832 9.9386071,17.8919651 9.83513931,17.7536861 C9.61946299,17.4655228 9.81701824,17.2453736 10.0662363,17.0536398 C11.0930972,16.2634941 11.020755,14.7590241 9.93185611,14.1121512 C9.1120729,13.6250799 8.08890728,13.8341161 7.53390495,14.6021766 C6.98679062,15.3594054 7.13055114,16.4041645 7.86491658,17.0055305 C7.95587727,17.0800858 8.06204545,17.1418402 8.1361642,17.2300405 C8.36065233,17.4969626 8.2255615,17.8927388 7.88502742,17.9836119 C7.82895868,17.998523 7.76770234,17.998945 7.70879108,17.998945 C5.93228619,17.9998593 4.1557813,17.9998593 2.37927641,18 L2.00250018,18 L2.00250018,17.6566235 C2.00250018,15.9334813 2.00470314,14.2103391 2.00029723,12.4871969 C1.9995866,12.213593 2.02389016,11.9609489 2.3233498,11.850382 C2.63083957,11.736861 2.80046704,11.9294387 2.9703077,12.1446645 C3.64405636,12.9987449 4.84544809,13.0950338 5.63339505,12.3657984 C6.38822665,11.6673698 6.37955696,10.4566899 5.61470548,9.76810821 C4.82597681,9.05800398 3.64050321,9.15640293 2.97826676,9.99536126 C2.8089946,10.2098133 2.64071733,10.4073849 2.33365394,10.3025854 C2.03291516,10.1999664 1.99923128,9.94985438 2.00001298,9.67322602 C2.00498739,7.93840817 2.00250018,6.20351999 2.00250018,4.46863181 L2.00250018,4.14691858 L2.40329572,4.14691858 C4.13247263,4.14691858 5.86157847,4.14438652 7.59068431,4.14952099 C7.87095694,4.15036501 8.12124096,4.11583042 8.22264791,3.81585077 C8.31943577,3.52951615 8.14334156,3.36338439 7.93299497,3.20238711 C7.05913279,2.5334993 6.95161441,1.36178511 7.68335052,0.571428409 C8.38367676,-0.184956392 9.6061742,-0.191356896 10.3074953,0.557713044 C11.0434952,1.34399031 10.9456414,2.52175332 10.079454,3.1931732 C9.87209209,3.35395948 9.6838461,3.5150271 9.7745936,3.80234641 C9.87521887,4.12075389 10.1404972,4.15071668 10.4328505,4.14973199 C12.1619564,4.1439645 13.8911333,4.14684825 15.6202391,4.14677791 L16,4.14677791 Z" id="Fill-1" fill="#ACADBF" transform="translate(9.000000, 9.000000) scale(-1, 1) translate(-9.000000, -9.000000) "></path>
                </g>
            </g>
        </g>
    </g>
</svg>