<?xml version="1.0" encoding="UTF-8"?>
<svg width="12px" height="18px" viewBox="0 0 12 18" version="1.1" xmlns="http://www.w3.org/2000/svg" xmlns:xlink="http://www.w3.org/1999/xlink">
    <!-- Generator: Sketch 52.3 (67297) - http://www.bohemiancoding.com/sketch -->
    <title>Shape 2</title>
    <desc>Created with Sketch.</desc>
    <g id="Page-2" stroke="none" stroke-width="1" fill="none" fill-rule="evenodd">
        <g id="Artboard" transform="translate(-51.000000, -56.000000)" fill-rule="nonzero">
            <g id="Group-Copy" transform="translate(48.000000, 16.000000)">
                <g id="Shape-2" transform="translate(0.000000, 40.000000)">
                    <rect id="Rectangle" x="0" y="0" width="18" height="18"></rect>
                    <path d="M14.3562631,9.83386208 L13.3401315,8.90373414 C13.3659473,8.4395673 13.3795263,8.06261702 13.3795263,7.85268879 C13.3795263,4.72038173 11.8766842,1.82234242 9.35684207,0.10055648 C9.26060523,0.034714999 9.14660523,0 9.02557891,0 C8.90628944,0 8.78873681,0.035729145 8.69415786,0.100478469 C6.17431577,1.82226441 4.67021052,4.72030372 4.67021052,7.85268879 C4.67021052,8.06253901 4.68086841,8.4395673 4.7066842,8.90365613 L3.67010526,9.83386208 C3.30252631,10.1685303 3,10.8175057 3,11.3113168 L3,14.930492 C3,15.4072967 3.31705263,15.5890628 3.60378947,15.5890628 C3.60386842,15.5890628 3.60457894,15.5890628 3.60457894,15.5890628 C3.7485,15.5890628 3.89802631,15.55544 4.0483421,15.4577699 L6.01160525,14.1894633 C6.08084209,14.1444508 6.14739472,14.0938215 6.21078946,14.0331288 L8.41713155,17.6140784 C8.56799997,17.8587217 8.78999997,18 9.02628944,18 C9.26265786,18 9.48465786,17.8602039 9.63544733,17.6155606 L11.8417894,14.0368733 C11.9051842,14.097566 11.9715789,14.1522519 12.0408157,14.1972644 L14.0039999,15.4735282 C14.1542368,15.5711983 14.2917631,15.6207354 14.4356841,15.6207354 C14.7224999,15.6207354 14.9999999,15.4072967 14.9999999,14.930414 L14.9999999,11.3112388 C15.0001578,10.8175057 14.723921,10.1685303 14.3562631,9.83386208 Z M9.02644733,8.02353339 C8.20010523,8.02353339 7.53015787,7.36160807 7.53015787,6.54498648 C7.53015787,5.7284429 8.20002629,5.06643957 9.02644733,5.06643957 C9.85286838,5.06643957 10.5227368,5.72836488 10.5227368,6.54498648 C10.5227368,7.36160807 9.85278944,8.02353339 9.02644733,8.02353339 Z" id="Shape" fill="#4A39E2"></path>
                </g>
            </g>
        </g>
    </g>
</svg>