<?xml version="1.0" encoding="UTF-8"?>
<svg width="18px" height="18px" viewBox="0 0 18 18" version="1.1" xmlns="http://www.w3.org/2000/svg" xmlns:xlink="http://www.w3.org/1999/xlink">
    <!-- Generator: Sketch 52.3 (67297) - http://www.bohemiancoding.com/sketch -->
    <title>Combined Shape 2</title>
    <desc>Created with Sketch.</desc>
    <g id="Page-2" stroke="none" stroke-width="1" fill="none" fill-rule="evenodd">
        <g id="Artboard" transform="translate(-20.000000, -16.000000)">
            <g id="Group" transform="translate(20.000000, 16.000000)">
                <g id="Combined-Shape-2">
                    <rect id="Rectangle" fill-rule="nonzero" x="0" y="0" width="18" height="18"></rect>
                    <path d="M3.96573918,15.1067282 C3.84509536,14.8848176 3.6927554,14.6783503 3.50902944,14.4946446 C3.31637149,14.3022559 3.09803409,14.1452812 2.86394165,14.0214256 C2.58419685,13.8733819 2.8053255,13.5562694 2.8053255,13.5562694 C3.09164524,13.1206971 3.35271971,12.6830781 3.568576,12.301836 L2.11942351,10.8540217 L0.712573891,10.8540217 C0.442009188,10.8540217 0.222679341,10.63453 0.222679341,10.3639331 C0.222679341,10.0934602 0.442009188,9.87396851 0.712573891,9.87396851 L2.32200589,9.87396851 C2.452264,9.87396851 2.57675353,9.92556984 2.66861652,10.0173607 L7.96447709,15.3071795 C8.05646413,15.3991564 8.10807115,15.5239423 8.10807115,15.6538139 L8.10807115,17.2708831 C8.10807115,17.541604 7.88867927,17.7606616 7.61805254,17.7606616 C7.3471777,17.7606616 7.12778583,17.541666 7.12778583,17.2708831 L7.12778583,15.8569322 L5.68440191,14.415568 C5.2948061,14.6454792 4.84194207,14.9273639 4.3932339,15.237344 C4.39317187,15.23722 4.1361292,15.4201815 3.96573918,15.1067282 Z M1.6495639,14.7052673 C2.09008442,14.7052673 2.50442927,14.8766929 2.81593224,15.1880375 C3.1274352,15.4990099 3.2991278,15.9127509 3.2991278,16.3526647 C3.2991278,16.7926405 3.12749723,17.2061333 2.81593224,17.5171678 C2.50436724,17.8282023 2.09008442,18 1.6495639,18 C1.20879526,17.999876 0.794512446,17.8282643 0.48269934,17.5171678 C0.171444484,17.2061954 0,16.7928265 0,16.3526647 C0,15.9128129 0.171382457,15.499072 0.48269934,15.1880375 C0.794574473,14.8766929 1.20879526,14.7052673 1.6495639,14.7052673 Z M6.26287197,11.307518 C6.04565107,11.5245289 5.69023251,11.5245289 5.4730116,11.3075801 L4.92654782,10.7617347 C4.70932691,10.5447858 4.70932691,10.1897166 4.92654782,9.97276769 L14.2549514,0.655191968 C14.4721723,0.438243096 14.9001012,0.237977828 15.2058356,0.210192495 L17.4922996,0.00229866422 C17.798096,-0.0254866687 18.0254895,0.201881703 17.9977011,0.507644407 L17.7901565,2.78945286 C17.7623681,3.09521556 17.5618947,3.5228492 17.3446738,3.73986009 L8.01571195,13.0585522 C7.79849104,13.2755011 7.44307248,13.2755011 7.22585158,13.0585522 L6.67864346,12.5119626 C6.46142255,12.2950137 6.46142255,11.9399445 6.67864346,11.7229336 L14.4891679,3.92052678 C14.6041672,3.80591228 14.6042912,3.6196017 14.4893539,3.50486316 C14.3747268,3.38993856 14.1883337,3.38993856 14.0732103,3.50473912 L6.26287197,11.307518 Z" id="Combined-Shape" fill="#ACADBF" transform="translate(9.000000, 9.000000) scale(1, -1) translate(-9.000000, -9.000000) "></path>
                </g>
            </g>
        </g>
    </g>
</svg>